<svg xmlns="http://www.w3.org/2000/svg" viewBox="0 0 512 512">
  <rect width="512" height="512" rx="96" fill="#101820"/>
  <rect x="64" y="64" width="384" height="384" rx="56" fill="#182530"/>
  <circle cx="256" cy="256" r="170" fill="#315c6d" opacity=".32"/>
  <g fill="#dff8ff" stroke="#87d7e9" stroke-width="10" stroke-linejoin="round">
    <path d="M219 118h74l18 31-17 30h-75l-18-30z"/>
    <path d="M213 184h86l22 34-21 34h-87l-22-34z"/>
    <path d="M208 258h96l24 38-24 39h-96l-24-39z"/>
    <path d="M203 346h106l31 44-37 42h-94l-37-42z"/>
  </g>
  <g fill="none" stroke="#dff8ff" stroke-linecap="round" stroke-width="15" opacity=".88">
    <path d="M185 150c-46 30-70 78-67 132"/>
    <path d="M327 150c46 30 70 78 67 132"/>
    <path d="M169 391c34-24 68-35 87-35s53 11 87 35"/>
  </g>
  <g fill="#87d7e9" opacity=".86">
    <circle cx="256" cy="149" r="10"/>
    <circle cx="256" cy="218" r="11"/>
    <circle cx="256" cy="297" r="12"/>
    <circle cx="256" cy="391" r="13"/>
  </g>
</svg>
