<svg xmlns="http://www.w3.org/2000/svg" viewBox="0 0 512 512">
  <rect width="512" height="512" rx="96" fill="#245b8f"/>
  <circle cx="256" cy="256" r="178" fill="#f7fbfc"/>
  <path fill="#d8e0e5" d="M162 326l28 28 166-166-28-28z"/>
  <path fill="#17202a" opacity=".16" d="M184 348l26 26 166-166-26-26z"/>
  <path fill="#0f766e" d="M144 335l33 33-20 20-33-33z"/>
  <path fill="#0f766e" d="M115 348l54 54-18 18-54-54z"/>
  <path fill="#17202a" d="M336 140l36 36-18 18-36-36z"/>
  <path fill="#17202a" d="M364 168l28 28-92 74-10-10z"/>
  <path fill="#eef4f5" d="M183 319l128-128 18 18-128 128z"/>
  <path fill="#b02a37" d="M405 213c18 25 32 46 32 64 0 23-18 40-40 40s-40-17-40-40c0-18 29-61 48-64z"/>
  <circle cx="391" cy="271" r="10" fill="#ffffff" opacity=".55"/>
</svg>
